<!DOCTYPE svg PUBLIC "-//W3C//DTD SVG 1.1//EN" "http://www.w3.org/Graphics/SVG/1.1/DTD/svg11.dtd">
<!-- Uploaded to: SVG Repo, www.svgrepo.com, Transformed by: SVG Repo Mixer Tools -->
<svg version="1.1" id="_x32_" xmlns="http://www.w3.org/2000/svg" xmlns:xlink="http://www.w3.org/1999/xlink" width="800px" height="800px" viewBox="-15.36 -15.36 542.72 542.72" xml:space="preserve" fill="#ffffff" stroke="#ffffff" stroke-width="0.00512">
<g id="SVGRepo_bgCarrier" stroke-width="0"/>
<g id="SVGRepo_tracerCarrier" stroke-linecap="round" stroke-linejoin="round" stroke="#000000" stroke-width="19.456"> <style type="text/css">  .st0{fill:#ffffff;}  </style> <g> <path class="st0" d="M473.984,74.248c-50.688-50.703-132.875-50.703-183.563,0c-17.563,17.547-29.031,38.891-34.438,61.391 c-5.375-22.5-16.844-43.844-34.406-61.391c-50.688-50.703-132.875-50.703-183.563,0c-50.688,50.688-50.688,132.875,0,183.547 l217.969,217.984l218-217.984C524.672,207.123,524.672,124.936,473.984,74.248z"/> </g> </g>
<g id="SVGRepo_iconCarrier"> <style type="text/css">  .st0{fill:#ffffff;}  </style> <g> <path class="st0" d="M473.984,74.248c-50.688-50.703-132.875-50.703-183.563,0c-17.563,17.547-29.031,38.891-34.438,61.391 c-5.375-22.5-16.844-43.844-34.406-61.391c-50.688-50.703-132.875-50.703-183.563,0c-50.688,50.688-50.688,132.875,0,183.547 l217.969,217.984l218-217.984C524.672,207.123,524.672,124.936,473.984,74.248z"/> </g> </g>
</svg>