<?xml version="1.0" encoding="iso-8859-1"?>
<!-- Uploaded to: SVG Repo, www.svgrepo.com, Generator: SVG Repo Mixer Tools -->
<svg height="800px" width="800px" version="1.1" id="Capa_1" xmlns="http://www.w3.org/2000/svg" xmlns:xlink="http://www.w3.org/1999/xlink" 
	 viewBox="0 0 17.15 17.15" xml:space="preserve">
<g>
	<g>
		<path style="fill:#030104;" d="M15.184,8.666c-0.306-3.378-3.157-6.037-6.609-6.037c-3.453,0-6.304,2.659-6.61,6.037H0v5.856
			h17.15V8.665C17.15,8.665,15.184,8.665,15.184,8.666z M15.986,13.36h-2.033v-2.234c0-0.321-0.261-0.582-0.582-0.582
			s-0.581,0.261-0.581,0.582v2.234h-2.18v-1.478c0-0.321-0.261-0.581-0.582-0.581s-0.582,0.26-0.582,0.581v1.478H7.219v-2.192
			c0-0.321-0.261-0.581-0.582-0.581s-0.581,0.26-0.581,0.581v2.192h-2.18v-1.417c0-0.321-0.261-0.582-0.581-0.582
			c-0.321,0-0.582,0.261-0.582,0.582v1.417h-1.55V9.829H3.1l0.002-0.58c0.01-3.009,2.465-5.457,5.474-5.457s5.465,2.448,5.474,5.457
			l0.001,0.58h1.937v3.531H15.986z"/>
		<path style="fill:#030104;" d="M8.656,5.413c-1.718,0-3.114,1.398-3.114,3.116v0.532h6.229V8.529
			C11.77,6.811,10.374,5.413,8.656,5.413z M6.676,7.995C6.91,7.122,7.71,6.477,8.655,6.477s1.744,0.645,1.979,1.517H6.676z"/>
	</g>
</g>
</svg>